<svg xmlns="http://www.w3.org/2000/svg" width="1000" height="1000" preserveAspectRatio="none"><g mask="url(&quot;#SvgjsMask1378&quot;)" fill="none"><path fill="rgba(242, 242, 242, 1)" d="M0 0h1000v1000H0z"/><path d="M134.63 373.79l148.09 85.5v171l-148.09 85.5-148.09-85.5v-171zm0 513l148.09 85.5v171l-148.09 85.5-148.09-85.5v-171zm296.19-1026l148.09 85.5v171l-148.09 85.5-148.1-85.5v-171zm296.19 1026l148.09 85.5v171l-148.09 85.5-148.1-85.5v-171zm444.28-769.5l148.1 85.5v171l-148.1 85.5-148.09-85.5v-171zm-148.09 256.5l148.09 85.5v171l-148.09 85.5-148.1-85.5v-171zm0 513l148.09 85.5v171l-148.09 85.5-148.1-85.5v-171z" stroke="#222222" stroke-width="2"/></g><defs><mask id="SvgjsMask1378"><path fill="#fff" d="M0 0h1000v1000H0z"/></mask></defs></svg>