<svg xmlns="http://www.w3.org/2000/svg" version="1.1" xmlns:xlink="http://www.w3.org/1999/xlink" xmlns:svgjs="http://svgjs.com/svgjs" width="1000" height="30" preserveAspectRatio="none" viewBox="0 0 1000 30">
    <g mask="url(&quot;#SvgjsMask1170&quot;)" fill="none">
        <rect width="1000" height="30" x="0" y="0" fill="#0e2a47"></rect>
        <path d="M -144.38249169301292,3 C -126.18,7.8 -89.78,25 -53.38249169301293,27 C -16.98,29 1.22,14.4 37.61750830698707,13 C 74.02,11.6 92.22,19.8 128.61750830698708,20 C 165.02,20.2 183.22,14.8 219.61750830698708,14 C 256.02,13.2 274.22,16.6 310.6175083069871,16 C 347.02,15.4 365.22,9.6 401.6175083069871,11 C 438.02,12.4 456.22,22.4 492.6175083069871,23 C 529.02,23.6 547.22,15.2 583.617508306987,14 C 620.02,12.8 638.22,18 674.617508306987,17 C 711.02,16 729.22,8.4 765.617508306987,9 C 802.02,9.6 820.22,20.2 856.617508306987,20 C 893.02,19.8 918.94,6.8 947.617508306987,8 C 976.29,9.2 989.52,22.4 1000,26" stroke="rgba(0, 185, 245, 1)" stroke-width="2"></path>
        <path d="M -129.55956495910888,9 C -111.36,11 -74.96,18 -38.55956495910888,19 C -2.16,20 16.04,13.8 52.44043504089112,14 C 88.84,14.2 107.04,20.8 143.44043504089112,20 C 179.84,19.2 198.04,8.8 234.44043504089112,10 C 270.84,11.2 289.04,27.2 325.4404350408911,26 C 361.84,24.8 380.04,3.8 416.4404350408911,4 C 452.84,4.2 471.04,26.4 507.4404350408911,27 C 543.84,27.6 562.04,8 598.4404350408911,7 C 634.84,6 653.04,22.4 689.4404350408911,22 C 725.84,21.6 744.04,4.2 780.4404350408911,5 C 816.84,5.8 835.04,25.2 871.4404350408911,26 C 907.84,26.8 936.73,9.8 962.4404350408911,9 C 988.15,8.2 992.49,19.4 1000,22" stroke="rgba(0, 185, 245, 1)" stroke-width="2"></path>
    </g>
    <defs>
        <mask id="SvgjsMask1170">
            <rect width="1000" height="30" fill="#ffffff"></rect>
        </mask>
    </defs>
</svg>