<svg xmlns="http://www.w3.org/2000/svg" version="1.1" xmlns:xlink="http://www.w3.org/1999/xlink" xmlns:svgjs="http://svgjs.com/svgjs" width="500" height="200" preserveAspectRatio="none" viewBox="0 0 500 200"><g mask="url(&quot;#SvgjsMask1013&quot;)" fill="none"><rect width="500" height="200" x="0" y="0" fill="rgba(14, 42, 71, 1)"></rect><g transform="translate(0, 0)" stroke-linecap="round"><path d="M100 51.61 L100 148.39" stroke-width="15" stroke="rgba(0, 185, 245, 1)"></path><path d="M120 87.3 L120 112.7" stroke-width="15" stroke="rgba(0, 185, 245, 1)"></path><path d="M140 91 L140 109" stroke-width="15" stroke="rgba(0, 185, 245, 1)"></path><path d="M160 73.77 L160 126.23" stroke-width="15" stroke="rgba(0, 185, 245, 1)"></path><path d="M180 53.09 L180 146.91" stroke-width="15" stroke="rgba(0, 185, 245, 1)"></path><path d="M200 47.23 L200 152.78" stroke-width="15" stroke="rgba(0, 185, 245, 1)"></path><path d="M220 72.17 L220 127.83" stroke-width="15" stroke="rgba(0, 185, 245, 1)"></path><path d="M240 62.66 L240 137.34" stroke-width="15" stroke="rgba(0, 185, 245, 1)"></path><path d="M260 76.88 L260 123.12" stroke-width="15" stroke="rgba(0, 185, 245, 1)"></path><path d="M280 91.84 L280 108.16" stroke-width="15" stroke="rgba(0, 185, 245, 1)"></path><path d="M300 44.56 L300 155.44" stroke-width="15" stroke="rgba(0, 185, 245, 1)"></path><path d="M320 52.32 L320 147.68" stroke-width="15" stroke="rgba(0, 185, 245, 1)"></path><path d="M340 87.95 L340 112.05" stroke-width="15" stroke="rgba(0, 185, 245, 1)"></path><path d="M360 50.73 L360 149.26" stroke-width="15" stroke="rgba(0, 185, 245, 1)"></path><path d="M380 81.03 L380 118.97" stroke-width="15" stroke="rgba(0, 185, 245, 1)"></path><path d="M400 67.62 L400 132.38" stroke-width="15" stroke="rgba(0, 185, 245, 1)"></path></g></g><defs><mask id="SvgjsMask1013"><rect width="500" height="200" fill="#ffffff"></rect></mask></defs></svg>