<svg xmlns="http://www.w3.org/2000/svg" xmlns:xlink="http://www.w3.org/1999/xlink" width="800" height="250" preserveAspectRatio="none"><g mask="url(&quot;#a&quot;)" fill="none"><path fill="#059458" d="M0 0h800v250H0z"/><use xlink:href="#b"/><use xlink:href="#b" x="720"/></g><defs><path d="M-1 0a1 1 0 102 0 1 1 0 10-2 0z" id="e"/><path d="M-3 0a3 3 0 106 0 3 3 0 10-6 0z" id="g"/><path d="M-5 0A5 5 0 105 0 5 5 0 10-5 0z" id="c"/><path d="M2-2l-4 4z" id="f"/><path d="M6-6L-6 6z" id="d"/><path d="M30-30l-60 60z" id="h"/><mask id="a"><path fill="#fff" d="M0 0h800v250H0z"/></mask></defs><symbol id="b"><use xlink:href="#c" x="30" y="30" stroke="#0af895"/><use xlink:href="#c" x="30" y="90" stroke="#0af895"/><use xlink:href="#d" x="30" y="150" stroke="#0af895"/><use xlink:href="#e" x="30" y="210" stroke="#0af895"/><use xlink:href="#f" x="30" y="270" stroke="#0af895"/><use xlink:href="#c" x="90" y="30" stroke="#0af895"/><use xlink:href="#f" x="90" y="90" stroke="#0af895"/><use xlink:href="#g" x="90" y="150" stroke="#0af895"/><use xlink:href="#f" x="90" y="210" stroke="#0af895"/><use xlink:href="#c" x="90" y="270" stroke="#0af895"/><use xlink:href="#d" x="150" y="30" stroke="#0af895"/><use xlink:href="#d" x="150" y="90" stroke="#0af895"/><use xlink:href="#h" x="150" y="150" stroke="#0af895" stroke-width="3"/><use xlink:href="#d" x="150" y="210" stroke="#0af895"/><use xlink:href="#d" x="150" y="270" stroke="#0af895"/><use xlink:href="#e" x="210" y="30" stroke="#0af895"/><use xlink:href="#c" x="210" y="90" stroke="#0af895"/><use xlink:href="#g" x="210" y="150" stroke="#0af895"/><use xlink:href="#c" x="210" y="210" stroke="#0af895"/><use xlink:href="#f" x="210" y="270" stroke="#0af895"/><use xlink:href="#c" x="270" y="30" stroke="#0af895"/><use xlink:href="#h" x="270" y="90" stroke="#0af895" stroke-width="3"/><use xlink:href="#d" x="270" y="150" stroke="#0af895"/><use xlink:href="#c" x="270" y="210" stroke="#0af895"/><use xlink:href="#c" x="270" y="270" stroke="#0af895"/><use xlink:href="#c" x="330" y="30" stroke="#0af895"/><use xlink:href="#d" x="330" y="90" stroke="#0af895"/><use xlink:href="#h" x="330" y="150" stroke="#0af895" stroke-width="3"/><use xlink:href="#h" x="330" y="210" stroke="#0af895" stroke-width="3"/><use xlink:href="#c" x="330" y="270" stroke="#0af895"/><use xlink:href="#c" x="390" y="30" stroke="#0af895"/><use xlink:href="#c" x="390" y="90" stroke="#0af895"/><use xlink:href="#c" x="390" y="150" stroke="#0af895"/><use xlink:href="#f" x="390" y="210" stroke="#0af895"/><use xlink:href="#c" x="390" y="270" stroke="#0af895"/><use xlink:href="#d" x="450" y="30" stroke="#0af895"/><use xlink:href="#e" x="450" y="90" stroke="#0af895"/><use xlink:href="#h" x="450" y="150" stroke="#0af895" stroke-width="3"/><use xlink:href="#c" x="450" y="210" stroke="#0af895"/><use xlink:href="#g" x="450" y="270" stroke="#0af895"/><use xlink:href="#g" x="510" y="30" stroke="#0af895"/><use xlink:href="#d" x="510" y="90" stroke="#0af895"/><use xlink:href="#f" x="510" y="150" stroke="#0af895"/><use xlink:href="#d" x="510" y="210" stroke="#0af895"/><use xlink:href="#d" x="510" y="270" stroke="#0af895"/><use xlink:href="#c" x="570" y="30" stroke="#0af895"/><use xlink:href="#d" x="570" y="90" stroke="#0af895"/><use xlink:href="#d" x="570" y="150" stroke="#0af895"/><use xlink:href="#g" x="570" y="210" stroke="#0af895"/><use xlink:href="#e" x="570" y="270" stroke="#0af895"/><use xlink:href="#d" x="630" y="30" stroke="#0af895"/><use xlink:href="#f" x="630" y="90" stroke="#0af895"/><use xlink:href="#f" x="630" y="150" stroke="#0af895"/><use xlink:href="#d" x="630" y="210" stroke="#0af895"/><use xlink:href="#f" x="630" y="270" stroke="#0af895"/><use xlink:href="#c" x="690" y="30" stroke="#0af895"/><use xlink:href="#d" x="690" y="90" stroke="#0af895"/><use xlink:href="#d" x="690" y="150" stroke="#0af895"/><use xlink:href="#h" x="690" y="210" stroke="#0af895" stroke-width="3"/><use xlink:href="#d" x="690" y="270" stroke="#0af895"/></symbol></svg>